<svg xmlns="http://www.w3.org/2000/svg" viewBox="0 0 100 100" id="chef">
  <path d="M50,49.86A23.16,23.16,0,0,1,32.1,41.44l4.62-3.82a17.24,17.24,0,0,0,26.56,0l4.62,3.83A23.2,23.2,0,0,1,50,49.86Z"></path>
  <path d="M79.47,96.61H20.52l-.23-2.75c-.11-1.32-2.48-33.45-2.94-44.22a20.29,20.29,0,1,1,14.11-37,23.23,23.23,0,0,1,37.08,0A20.29,20.29,0,0,1,96,41.67a20.4,20.4,0,0,1-13.36,8c-.46,10.77-2.83,42.91-2.94,44.23ZM26,90.61H74c.7-8.46,2.76-37.9,2.76-43.76v-3h3a14.13,14.13,0,0,0,11.45-5.77h0A14.1,14.1,0,0,0,94,29.57,14.28,14.28,0,0,0,69.88,19.21L67,21.91l-1.86-3.45a17.23,17.23,0,0,0-30.34,0L33,21.9l-2.85-2.7a14.29,14.29,0,1,0-9.84,24.65h3v3C23.28,52.72,25.34,82.15,26,90.61Z"></path>
</svg>